<svg width="47" height="49" viewBox="0 0 47 49" fill="none" xmlns="http://www.w3.org/2000/svg">
<g filter="url(#filter0_d_102_36)">
<path d="M31.0276 16.5298L29.1646 14.7853L28.1994 13.9304L20.927 7.28736C20.5033 6.90421 19.8692 6.90421 19.4455 7.28736L12.173 13.9304L11.2079 14.7853L9.34486 16.5298C8.91156 16.9582 8.88287 17.6619 9.27978 18.1262C9.67669 18.5905 10.3584 18.6507 10.8263 18.2628L11.2079 17.9162V27.794C11.2079 29.7082 12.7153 31.2599 14.5748 31.2599H16.8194V24.3281C16.8194 22.4139 18.3268 20.8622 20.1862 20.8622C22.0457 20.8622 23.5531 22.4139 23.5531 24.3281V31.2599H25.7977C27.6572 31.2599 29.1646 29.7082 29.1646 27.794V17.9162L29.5462 18.2628C30.0113 18.6833 30.7193 18.6367 31.1286 18.1588C31.5371 17.68 31.4919 16.9512 31.0276 16.5298Z" fill="#F05A22"/>
</g>
<defs>
<filter id="filter0_d_102_36" x="0" y="0" width="46.4077" height="48.2599" filterUnits="userSpaceOnUse" color-interpolation-filters="sRGB">
<feFlood flood-opacity="0" result="BackgroundImageFix"/>
<feColorMatrix in="SourceAlpha" type="matrix" values="0 0 0 0 0 0 0 0 0 0 0 0 0 0 0 0 0 0 127 0" result="hardAlpha"/>
<feOffset dx="3" dy="5"/>
<feGaussianBlur stdDeviation="6"/>
<feComposite in2="hardAlpha" operator="out"/>
<feColorMatrix type="matrix" values="0 0 0 0 1 0 0 0 0 0.745098 0 0 0 0 0.615686 0 0 0 0.78 0"/>
<feBlend mode="normal" in2="BackgroundImageFix" result="effect1_dropShadow_102_36"/>
<feBlend mode="normal" in="SourceGraphic" in2="effect1_dropShadow_102_36" result="shape"/>
</filter>
</defs>
</svg>
